# xmcd
#
# Track frame offsets:
#   150
#   24764
#   43283
#   73654
#   116320
#   135376
#   160424
#   179523
#   203666
#   221926
#
# Disc length: 3181 seconds
#
# Revision: 0
# Processed by: cddbd v1.5.2PL0 Copyright (c) Steve Scherf et al.
# Submitted via: uFREEDB ActiveX Control 1.5
#
DISCID=8e0c6b0a
DTITLE=Soraya Moraes - Quão grande é o meu Deus
DYEAR=1900
DGENRE=Gospel
TTITLE0=Quão Grande é o meu Deus
TTITLE1=Reina o Senhor
TTITLE2=Nossa Justiça
TTITLE3=Leão e Cordeiro
TTITLE4=Som da Chuva
TTITLE5=Alfa e Omega
TTITLE6=Derrama tua unção
TTITLE7=Tu és bom
TTITLE8=Cada Promessa
TTITLE9=Apaixonado
EXTD=
EXTT0=
EXTT1=
EXTT2=
EXTT3=
EXTT4=
EXTT5=
EXTT6=
EXTT7=
EXTT8=
EXTT9=
PLAYORDER=
